<?xml version="1.0" encoding="iso-8859-1"?>
<!-- Generator: Adobe Illustrator 18.1.1, SVG Export Plug-In . SVG Version: 6.00 Build 0)  -->
<svg version="1.1" id="Capa_1" xmlns="http://www.w3.org/2000/svg" xmlns:xlink="http://www.w3.org/1999/xlink" x="0px" y="0px"
	 viewBox="0 0 16.072 16.072" style="enable-background:new 0 0 16.072 16.072;" xml:space="preserve">
<g>
	<g>
		<path style="fill:#030104;" d="M14.651,5.521V3.23H1.42v5.238h5.072C6.384,8.888,6.32,9.326,6.32,9.78
			c0,0.037,0.005,0.073,0.005,0.11H0V1.809h16.072v5.254C15.706,6.458,15.222,5.935,14.651,5.521z"/>
		<path style="fill:#030104;" d="M11.7,14.263c2.41,0,4.372-1.962,4.372-4.373c0-2.412-1.962-4.373-4.372-4.373
			c-2.411,0-4.373,1.96-4.373,4.373C7.328,12.301,9.289,14.263,11.7,14.263z M11.7,13.075c-1.756,0-3.185-1.429-3.185-3.186
			c0-1.756,1.429-3.186,3.185-3.186c1.758,0,3.186,1.43,3.186,3.186C14.886,11.646,13.458,13.075,11.7,13.075z"/>
		<polygon style="fill:#030104;" points="9.806,10.44 9.806,9.299 11.138,9.299 11.138,7.995 12.28,7.995 12.28,9.299 13.595,9.299 
			13.595,10.44 12.28,10.44 12.28,11.784 11.138,11.784 11.138,10.44 		"/>
	</g>
</g>
<g>
</g>
<g>
</g>
<g>
</g>
<g>
</g>
<g>
</g>
<g>
</g>
<g>
</g>
<g>
</g>
<g>
</g>
<g>
</g>
<g>
</g>
<g>
</g>
<g>
</g>
<g>
</g>
<g>
</g>
</svg>
