<?xml version="1.0" ?><svg contentScriptType="text/ecmascript" contentStyleType="text/css" enable-background="new 0 0 2048 2048" height="2048px" id="Layer_1" preserveAspectRatio="xMidYMid meet" version="1.1" viewBox="77.0 0 998.0 2048" width="998.0px" xml:space="preserve" xmlns="http://www.w3.org/2000/svg" xmlns:xlink="http://www.w3.org/1999/xlink" zoomAndPan="magnify"><path d="M1075,864c0,8.667-3.333,16.333-10,23l-466,466c-6.667,6.667-14.333,10-23,10s-16.333-3.333-23-10L87,887  c-6.667-6.667-10-14.333-10-23s3.333-16.333,10-23l50-50c6.667-6.667,14.333-10,23-10s16.333,3.333,23,10l393,393l393-393  c6.667-6.667,14.333-10,23-10s16.333,3.333,23,10l50,50C1071.667,847.667,1075,855.333,1075,864z"/></svg>